<?xml version="1.0" standalone="no"?>
<!DOCTYPE svg PUBLIC "-//W3C//DTD SVG 20010904//EN"
 "http://www.w3.org/TR/2001/REC-SVG-20010904/DTD/svg10.dtd">
<svg version="1.0" xmlns="http://www.w3.org/2000/svg"
 width="190.000000pt" height="190.000000pt" viewBox="0 0 190.000000 190.000000"
 preserveAspectRatio="xMidYMid meet">
<metadata>
Created by potrace 1.11, written by Peter Selinger 2001-2013
</metadata>
<g transform="translate(0.000000,190.000000) scale(0.100000,-0.100000)"
fill="#000000" stroke="none">
<path d="M828 1504 c-18 -18 -153 -74 -179 -74 -21 0 -31 -22 -84 -188 -35
-112 -45 -157 -45 -212 0 -38 -5 -80 -11 -93 -8 -18 -7 -51 5 -132 9 -59 14
-111 11 -115 -2 -4 1 -24 7 -46 6 -21 11 -46 12 -54 0 -8 12 -41 25 -74 l24
-58 19 23 c17 21 19 22 14 4 -3 -11 -8 -38 -11 -60 l-6 -40 70 72 c82 84 152
216 172 323 13 73 15 365 3 510 -4 52 -8 125 -8 163 0 37 -1 67 -1 67 0 0 -8
-7 -17 -16z m-142 -620 c-3 -58 -7 -108 -10 -112 -3 -3 -6 6 -6 21 0 14 -7 32
-15 41 -14 13 -14 16 1 24 11 6 16 25 16 70 1 34 5 62 10 62 4 0 6 -48 4 -106z"/>
<path d="M1081 1462 c0 -35 -3 -67 -5 -71 -3 -4 -7 -18 -10 -32 -2 -13 -16
-80 -29 -149 -59 -294 -58 -392 4 -564 34 -93 78 -141 196 -215 53 -33 73 -34
71 -3 -2 29 13 95 28 125 19 36 66 275 59 298 -3 9 -8 39 -10 65 -3 27 -7 69
-10 94 -3 25 -8 69 -10 98 -10 137 -17 171 -47 234 -32 68 -31 68 -108 82 -30
6 -103 54 -114 74 -13 25 -14 23 -15 -36z m155 -524 c7 -92 10 -228 4 -228 -5
0 -38 94 -45 129 -2 11 2 39 10 63 15 51 15 52 15 80 0 41 12 10 16 -44z"/>
<path d="M913 1439 c-7 -7 -8 -21 -2 -41 4 -17 7 -34 4 -38 -12 -19 -23 -250
-29 -625 -2 -145 -1 -163 17 -188 l19 -28 25 23 25 23 -6 335 c-4 184 -8 370
-10 412 -3 57 0 80 10 89 10 8 11 16 3 30 -11 21 -39 25 -56 8z"/>
</g>
</svg>
