<?xml version="1.0" standalone="no"?>
<!DOCTYPE svg PUBLIC "-//W3C//DTD SVG 20010904//EN"
 "http://www.w3.org/TR/2001/REC-SVG-20010904/DTD/svg10.dtd">
<svg version="1.0" xmlns="http://www.w3.org/2000/svg"
 width="190.000000pt" height="190.000000pt" viewBox="0 0 190.000000 190.000000"
 preserveAspectRatio="xMidYMid meet">
<metadata>
Created by potrace 1.14, written by Peter Selinger 2001-2017
</metadata>
<g transform="translate(0.000000,190.000000) scale(0.100000,-0.100000)"
fill="#000000" stroke="none">
<path d="M410 1482 c-70 -5 -79 -10 -75 -40 1 -15 6 -64 10 -109 7 -77 6 -83
-11 -84 -11 0 -26 -2 -34 -3 -8 -2 -43 -6 -78 -10 -93 -10 -94 -12 -86 -60 8
-53 11 -72 19 -121 3 -22 12 -78 20 -125 8 -47 17 -101 19 -120 3 -19 7 -44 9
-55 3 -11 8 -41 11 -67 4 -27 13 -48 19 -49 7 0 22 -2 35 -5 26 -5 26 -17 2
159 -6 37 -12 89 -15 115 -3 26 -8 58 -10 72 -2 14 -6 45 -10 70 -3 25 -8 61
-11 81 -6 43 -4 44 121 54 44 4 83 9 87 11 6 4 2 122 -7 187 -2 16 2 30 9 33
7 3 60 6 119 8 114 3 111 4 109 -49 -1 -20 -3 -653 -2 -687 0 -29 62 -22 67 7
3 19 16 511 17 650 l1 140 -150 0 c-82 0 -166 -1 -185 -3z"/>
<path d="M528 1385 c-2 -3 -3 -18 0 -34 4 -29 4 -30 78 -22 6 1 10 15 10 31 0
29 -2 30 -41 30 -23 0 -44 -2 -47 -5z"/>
<path d="M791 1338 c-4 -13 -9 -50 -10 -83 -2 -33 -4 -82 -5 -110 -12 -203
-19 -349 -20 -400 -1 -59 0 -60 24 -57 14 2 26 5 28 7 4 4 8 51 17 180 3 50 8
104 10 120 2 17 7 79 10 138 4 59 8 116 10 125 2 9 4 22 4 27 1 7 25 8 74 4
39 -4 83 -8 96 -8 22 -1 23 -3 17 -58 -4 -32 -8 -71 -11 -88 -13 -90 -26 -184
-29 -210 -6 -46 -16 -116 -22 -156 -5 -35 -4 -36 20 -32 14 3 29 10 34 17 8 9
23 86 38 191 5 41 15 101 19 125 3 14 8 42 11 64 3 21 8 48 10 60 2 11 7 44
10 73 l7 51 -49 7 c-27 4 -60 9 -74 11 -14 2 -63 7 -110 10 -47 4 -88 8 -93
11 -4 2 -11 -6 -16 -19z"/>
<path d="M532 1248 c3 -28 7 -33 33 -33 38 -1 55 11 55 41 0 22 -4 24 -46 24
-45 0 -45 0 -42 -32z"/>
<path d="M908 1215 c-6 -29 11 -42 51 -41 20 1 25 7 28 31 3 28 1 30 -36 33
-34 2 -39 0 -43 -23z"/>
<path d="M534 1140 c-2 -30 0 -32 36 -32 46 0 50 2 50 32 0 29 -2 30 -43 30
-40 0 -42 -2 -43 -30z"/>
<path d="M277 1144 c-11 -11 -8 -52 4 -59 6 -4 26 -4 45 0 31 5 34 9 31 33 -3
23 -9 27 -38 30 -19 2 -38 0 -42 -4z"/>
<path d="M898 1111 c-5 -32 5 -41 48 -41 17 0 25 7 30 25 8 31 8 31 -37 39
-35 6 -37 5 -41 -23z"/>
<path d="M540 1027 c0 -31 2 -34 28 -31 15 1 33 2 40 3 7 1 12 14 12 31 0 28
-2 30 -40 30 -39 0 -40 -1 -40 -33z"/>
<path d="M291 1042 c-13 -4 -14 -13 -2 -45 8 -22 14 -24 42 -18 32 6 44 27 32
57 -5 13 -42 16 -72 6z"/>
<path d="M895 1026 c-15 -42 -10 -51 28 -54 21 -2 38 1 38 7 5 41 3 45 -29 52
-22 4 -35 3 -37 -5z"/>
<path d="M1258 1002 c-10 -2 -18 -7 -18 -11 0 -3 45 -31 101 -60 55 -29 97
-57 92 -61 -4 -4 -29 -15 -55 -25 l-47 -17 -66 31 c-53 24 -71 29 -87 20 -19
-10 -19 -11 -1 -31 13 -15 15 -22 6 -25 -21 -7 -15 -20 12 -27 14 -4 25 -10
25 -15 0 -10 -205 -74 -361 -111 -487 -115 -809 -94 -764 52 4 13 21 43 38 68
l31 44 -32 -22 c-44 -32 -119 -121 -127 -150 -10 -41 12 -79 58 -98 91 -36
352 -25 602 27 55 12 107 22 115 24 76 16 265 70 368 105 51 18 95 30 97 28 5
-4 13 -43 14 -66 1 -9 8 -11 24 -6 29 9 28 7 34 46 2 18 8 36 11 39 4 3 41 12
82 18 41 7 85 14 97 17 19 5 28 -7 78 -105 51 -103 57 -111 76 -101 28 15 31
28 20 84 -8 44 -7 51 12 66 24 20 17 50 -13 50 -11 0 -20 6 -20 14 0 8 -3 21
-6 29 -4 11 14 22 66 42 117 45 194 94 176 112 -4 4 -37 7 -74 7 -54 0 -86 -8
-171 -42 -104 -41 -131 -44 -131 -13 0 27 -8 29 -48 19 -32 -8 -51 -5 -117 19
-44 16 -88 27 -97 25z"/>
<path d="M545 951 c-3 -2 -5 -17 -5 -33 0 -26 3 -28 41 -28 39 0 40 1 37 33
-3 29 -6 32 -36 33 -18 0 -35 -2 -37 -5z"/>
<path d="M300 904 c0 -36 0 -36 38 -30 20 3 38 5 39 6 1 0 0 8 -2 18 -2 9 -4
23 -4 30 -1 7 -15 12 -36 12 -33 0 -35 -2 -35 -36z"/>
<path d="M877 905 c-5 -28 12 -42 48 -41 15 1 21 9 23 34 3 30 2 32 -31 32
-29 0 -35 -4 -40 -25z"/>
<path d="M547 843 c-2 -5 -2 -14 -1 -20 1 -7 2 -19 3 -27 1 -9 13 -13 36 -12
33 1 35 3 35 34 0 30 -2 32 -34 32 -19 0 -37 -3 -39 -7z"/>
<path d="M321 832 c-6 -2 -11 -17 -11 -33 0 -29 2 -30 38 -27 37 3 37 3 33 53
-1 14 -29 17 -60 7z"/>
<path d="M868 800 c-4 -25 -1 -31 19 -36 12 -4 30 -4 38 0 18 7 20 56 3 57 -7
0 -23 2 -34 5 -18 3 -23 -2 -26 -26z"/>
<path d="M1397 724 c-3 -3 6 -16 21 -29 25 -22 26 -23 9 -49 -43 -65 -390
-188 -598 -212 -66 -7 -72 -23 -7 -18 217 15 477 85 616 164 54 31 79 66 69
94 -9 23 -96 63 -110 50z"/>
</g>
</svg>
